<svg width="49" height="50" viewBox="0 0 49 50" fill="none" xmlns="http://www.w3.org/2000/svg">
<path d="M46.9515 21.5922L5.27677 0.350898C4.71456 0.0853684 4.09612 -0.0326008 3.47776 0.00772819C2.8594 0.0480572 2.26076 0.245404 1.73632 0.581804C1.21188 0.918204 0.778314 1.38297 0.475077 1.9338C0.171841 2.48463 0.0085697 3.10403 0.000126014 3.73561V46.2C-0.00512438 46.8483 0.153777 47.487 0.461471 48.0544C0.769166 48.6219 1.21525 49.0988 1.7566 49.4391C2.29796 49.7794 2.91627 49.9716 3.55179 49.9971C4.18731 50.0226 4.81854 49.8805 5.38446 49.5847L46.9515 28.3433C47.5673 28.0283 48.0849 27.5449 48.4467 26.9471C48.8084 26.3494 49 25.661 49 24.9586C49 24.2563 48.8084 23.5678 48.4467 22.9701C48.0849 22.3724 47.5673 21.889 46.9515 21.5739V21.5922Z" fill="white"/>
</svg>
